<svg xmlns="http://www.w3.org/2000/svg" xmlns:xlink="http://www.w3.org/1999/xlink" width="80px" height="68px" viewBox="0 0 80 68" version="1.1" role="presentation">
    <!-- Generator: Sketch 55 (78076) - https://sketchapp.com -->
    <title>quickentries-configurator_a</title>
    <desc>Created with Sketch.</desc>
    <g id="Icons" stroke="none" stroke-width="1" fill="none" fill-rule="evenodd">
        <g id="icons/quickentries/configurator_a" transform="translate(0.000000, -1.000000)" fill="#000000" fill-rule="nonzero">
            <g id="quickentries-configurator_a" transform="translate(0.000000, 1.000000)">
                <path d="M56.2,33.4 L56,33.4 L56,28.6 L54.3,22.2 L52,28 L51.8,28.6 L51.2,28.9 L49.8,29.5 L48.5,31.2 L48.1,31.7 L47.5,31.8 L40.1,33.4 L39.8,33.5 L39.5,33.4 L32,31.8 L31.4,31.7 L31,31.2 L29.7,29.5 L28.3,28.9 L27.7,28.6 L27.6,28 L25,21.6 L23.1,28.6 L23.1,33.4 L22.8,33.4 L20.5,36.8 L20.5,40.1 L22.8,41.8 L27.2,41.8 L30.6,48.7 L30.6,53.6 L32.5,54 L34.7,54.4 L34.8,54.4 L35.1,64.4 C35.1,66.1 37.1,67.6 39.6,67.6 C42.1,67.6 44.1,66.2 44.1,64.4 L44.4,54.3 L46.9,53.9 L49,53.5 L49,47.7 L51.6,41.6 L56,41.6 L58.3,39.9 L58.3,36.6 L56.2,33.4 Z M32.4,40.1 L32.4,33.6 L32.4,33.6 L35.8,34.4 L35.8,36.8 C34.5082685,37.5340229 33.5699353,38.7610741 33.2,40.2 L32.4,40.2 L32.4,40.1 Z M33.2,51.6 L33.2,40.2 C33.9046856,39.806932 34.6404979,39.4724718 35.4,39.2 C35.2867017,39.4527941 35.2189928,39.7236296 35.2,40 L34.8,51.8 L33.2,51.6 Z M47.5,33.6 L47.5,40.1 L46.7,40.1 L46.7,51.6 L44.7,51.9 L44.3,40 C44.2933593,39.7218183 44.2250496,39.4485795 44.1,39.2 C44.9171832,39.4904962 45.7183175,39.8243022 46.5,40.2 C46.080721,38.51216 44.9497183,37.0892857 43.4,36.3 L43.4,34.2 L47.5,33.6 L47.5,33.6 L47.5,33.6 Z" id="Shape"></path>
                <path d="M65.8,5.7 L65.8,5.7 C64.8003786,4.60524394 63.3824199,3.98715939 61.9,4 C60.3953774,3.98259133 58.9629222,4.64372452 58,5.8 L58,5.6 L58,5.6 L58.5,6.6 L55.9,8.1 L53.7,10.5 L53.8,9.9 L51.5,9.6 L52.3,7.5 L50.7,3.4 L48.2,0.4 L39.9,1.8 L31.6,0.4 L29.1,3.4 L27.5,7.5 L28.3,9.6 C27.3934159,9.68430293 26.4920857,9.81783333 25.6,10 L25.6,10.2 L23.8,8.2 L21.2,6.7 L21.7,5.7 L21.7,5.7 L21.7,5.9 C20.7107629,4.7785346 19.2952055,4.12520041 17.8,4.1 C16.3047131,4.02026281 14.8593712,4.65028365 13.9,5.8 L13.9,5.8 L15.8,8.1 L18.2,9.1 L20.5,8.2 L20.9,7.5 L23.4,8.8 L25.3,10.8 C21.5,11.4 18.9,12 18.8,12 L19.1,13.6 C19.2,13.6 22,13 26,12.4 L26.1,13.2 C26.5,13.1 26.9,13.1 27.3,13 L24.4,15.1 L29.2,27.4 L30.9,28.2 L32.4,30.2 L39.8,31.8 L47.2,30.2 L48.7,28.2 L50.4,27.4 L55.2,15.1 L52.4,13 C52.7,13 52.9,13.1 53.2,13.1 L53.3,12.3 C55.6258448,12.5826816 57.9307485,13.0169388 60.2,13.6 L60.6,12 C60.5,12 58.1,11.4 54.4,10.8 L56.3,8.8 L58.8,7.5 L59.2,8.2 L61.5,9.1 L63.9,8.1 L65.8,5.7 L65.8,5.7 Z M34,28.7 L30.6,25.8 L30.1,23.2 L29,20.8 L29.5,18.6 L32.8,20 L36.7,24 L37.4,29.4 L34,28.7 Z M49.4,23.2 L48.9,25.8 L45.5,28.7 L42,29.2 L42.7,23.8 L46.6,19.8 L49.9,18.4 L50.4,20.6 L49.4,23.2 Z" id="Shape"></path>
                <path d="M10.4,39.3 L15.4,39.3 L15.4,38 L7.8,30.6 L0.2,38 L0.2,39.3 L5.3,39.3 C5.80357758,49.4463298 12.5955072,58.1959332 22.3,61.2 L23.6,56.3 C16.1372351,53.8663473 10.9090157,47.1330344 10.4,39.3 L10.4,39.3 Z" id="Path"></path>
                <path d="M71.6,30.5 L64.1,38 L64.1,39.3 L69.1,39.3 C68.5856132,47.0133372 63.5046643,53.6697741 56.2,56.2 L57.5,61.1 C67.0001916,57.9529046 73.5928829,49.2950329 74.1,39.3 L79.2,39.3 L79.2,38 L71.6,30.5 Z" id="Path"></path>
            </g>
        </g>
    </g>
</svg>