<svg xmlns="http://www.w3.org/2000/svg" xmlns:xlink="http://www.w3.org/1999/xlink" width="80px" height="59px" viewBox="0 0 80 59" version="1.1" role="presentation">
    <!-- Generator: Sketch 56.3 (81716) - https://sketch.com -->
    <title>quickentries-dlo</title>
    <desc>Created with Sketch.</desc>
    <g id="Icons" stroke="none" stroke-width="1" fill="none" fill-rule="evenodd">
        <g id="icons/quickentries/dlo" transform="translate(0.000000, -11.000000)" fill="#000000" fill-rule="nonzero">
            <g id="quickentries-dlo" transform="translate(0.000000, 11.000000)">
                <path d="M39.65,-1.05796417e-05 C28.8320126,-0.0111117126 20.0440819,8.73209666 20,19.55 C20,30.35 39.6,58.85 39.6,58.85 C39.6,58.85 59.2,30.45 59.2,19.55 C59.1889759,8.75740278 50.4425972,0.011024112 39.65,-1.05796417e-05 Z M39.65,28.4 C34.6794373,28.4 30.65,24.3705627 30.65,19.4 C30.65,14.4294373 34.6794373,10.4 39.65,10.4 C44.6205627,10.4 48.65,14.4294373 48.65,19.4 C48.6224939,24.3510254 44.6011018,28.3500764 39.65,28.35 L39.65,28.4 Z" id="Shape"></path>
                <path d="M67.75,12.1498907 C65.874338,12.1652314 64.0270919,12.6099388 62.35,13.45 C62.6552077,14.4601646 62.8562546,15.4989072 62.95,16.55 C64.3700287,15.5937375 66.0381544,15.0724482 67.75,15.05 C70.0051539,15.0473422 72.1687067,15.9420218 73.7633425,17.5366575 C75.3579782,19.1312933 76.2526578,21.2948461 76.25,23.55 C76.25,26.65 71.85,34.75 67.75,41.15 C65.2458257,37.2465197 62.9913157,33.1884017 61,29 L59.5,32.6 C62.0276623,37.3925431 64.832415,42.0337411 67.9,46.5 C67.9,46.5 79.3001093,30 79.3001093,23.7 C79.3133655,20.6326717 78.1007864,17.6871121 75.9318372,15.5181628 C73.7628879,13.3492136 70.8173283,12.1366345 67.75,12.1498907 Z" id="Path"></path>
                <circle id="Oval" cx="67.75" cy="23.55" r="4.4"></circle>
                <path d="M11.55,40.35 C6.05,31.75 3.55,25.55 3.55,23.65 C3.55,19.231722 7.131722,15.65 11.55,15.65 C13.2332975,15.6569667 14.8738762,16.1805556 16.25,17.15 C16.3771381,15.9317685 16.6113774,14.7271095 16.95,13.55 C15.2942831,12.652868 13.4326022,12.2046856 11.55,12.25 C8.52571845,12.2473436 5.62454018,13.4475586 3.48604937,15.5860494 C1.34755855,17.7245402 0.147343625,20.6257185 0.1499956,23.65 C0.1499956,29.95 11.55,46.55 11.55,46.55 C14.617585,42.0837411 17.4223377,37.4425431 19.95,32.65 C19.25,31.15 18.6499956,29.75 18.1499956,28.35 C16.2053698,32.4852358 14.0009634,36.4932474 11.55,40.35 L11.55,40.35 Z" id="Path"></path>
                <circle id="Oval" cx="11.55" cy="23.55" r="4.4"></circle>
            </g>
        </g>
    </g>
</svg>