<svg xmlns="http://www.w3.org/2000/svg" xmlns:xlink="http://www.w3.org/1999/xlink" width="58px" height="61px" viewBox="0 0 58 61" version="1.1" role="presentation">
    <!-- Generator: Sketch 55 (78076) - https://sketchapp.com -->
    <title>quickentries-events</title>
    <desc>Created with Sketch.</desc>
    <g id="Icons" stroke="none" stroke-width="1" fill="none" fill-rule="evenodd">
        <g id="icons/quickentries/events" transform="translate(-11.000000, -5.000000)" fill="#000000" fill-rule="nonzero">
            <g id="quickentries-events" transform="translate(11.000000, 5.000000)">
                <polygon id="Path" points="57.4 8.6 26.9 0.4 24.5 9.1 48.4 9.1 48.4 42.4"></polygon>
                <polygon id="Path" points="8 47.4 8 23.7 0.4 26.4"></polygon>
                <polygon id="Path" points="12.7 60.4 29.1 54.4 10.6 54.4"></polygon>
                <path d="M10.6,51.9 L45.7,51.9 L45.7,11.8 L10.6,11.8 L10.6,51.9 Z M15.7,21.8 L40.8,21.8 L40.8,46.9 L15.7,46.9 L15.7,21.8 Z" id="Shape"></path>
                <polygon id="Path" points="21.9 27.5 21.9 31.9 26.9 31.9 26.9 43.2 32 43.2 32 25.6 28.8 25.6"></polygon>
            </g>
        </g>
    </g>
</svg>