<svg xmlns="http://www.w3.org/2000/svg" xmlns:xlink="http://www.w3.org/1999/xlink" width="55px" height="61px" viewBox="0 0 55 61" version="1.1" role="presentation">
    <!-- Generator: Sketch 55 (78076) - https://sketchapp.com -->
    <title>quickentries-testride</title>
    <desc>Created with Sketch.</desc>
    <g id="Icons" stroke="none" stroke-width="1" fill="none" fill-rule="evenodd">
        <g id="icons/quickentries/testride" transform="translate(-12.000000, -5.000000)" fill="#000000" fill-rule="nonzero">
            <g id="quickentries-testride" transform="translate(12.000000, 5.000000)">
                <path d="M52.1,32.4 C50.1,33.8 47.6,35.5 44.5,37.6 C40.6,40.2 36.1,43.2 31.2,46.7 C21,53.3 12.9,57.4 7.6,58.6 C7.67654029,58.6800012 7.71323153,58.7900749 7.7,58.9 C7.7,60.1 8.3,60.4 10.1,60.4 C13.5,60.4 20.8,57.3 31.5,50.3 C42.1,43 50.5,37.8 52.3,35.9 C54.1,34 53.1,33.4 52.1,32.4 Z" id="Path"></path>
                <path d="M48.8,7.9 C48.3,7.4 47.8,7 47.3,6.5 C47.4,6.2 47.4,6 46.9,5.5 C45.5,4.1 46.3,3.4 46.6,2.9 C46.6975543,2.8064099 46.732487,2.66500562 46.6897367,2.53675445 C46.6469863,2.40850328 46.5341975,2.31633947 46.4,2.3 C38.8,0.5 33.8,0.2 29.1,0.5 C24.4,0.8 24.1,1.3 24.1,1.5 C18.2,2.5 15.2,3.9 13.3,5.2 C12.7654426,5.55477987 12.2634686,5.95635913 11.8,6.4 C11.4638055,6.34094324 11.1178427,6.37553952 10.8,6.5 C6.8,9.6 3.1,16.5 2.8,17.2 C2.5,17.9 3.2,19.6 3.2,20 C3.13353927,20.4403957 3.03324239,20.8750155 2.9,21.3 L2.1,24.7 C0.7,26 0.8,30.1 0.8,33.9 C0.859634238,37.744932 1.1266891,41.5838456 1.6,45.4 C1.65378108,46.0475063 1.78815257,46.6857709 2,47.3 C1.69114692,48.7469992 1.52369271,50.2205962 1.5,51.7 C1.5,53.1 2.9,54.9 4.2,56.3 L4.8,56.3 C6.8,56.3 13.2,55.1 29.7,44.5 C34.6,41.1 39.1,38.1 43,35.4 C47.5,32.4 51.2,29.9 53.1,28.4 C53.7567598,26.3523687 54.192573,24.2403508 54.4,22.1 C54.5,18.4 51.1,10.1 48.8,7.9 Z M16.7,44.1 C15.9206178,44.5399716 15.1196066,44.9404772 14.3,45.3 L22.4,20.9 C23.7126614,20.4347713 24.9570669,19.7957523 26.1,19 L18,43.4 C17.6,43.6 17.1,43.9 16.7,44.1 Z M3.4,44 C3.1,41.3 2.8,37.9 2.7,33.8 C2.6,29.7 2.6,25.4 4.7,25.2 C8.3139491,24.6727079 11.8885911,23.9043269 15.4,22.9 L7.8,45.9 C6.95587539,46.2101909 6.08575949,46.4444529 5.2,46.6 C4.4,46.6 3.7,46.7 3.4,44 Z M40.6,17.1 C40.3,19 39.2,27.9 37.4,29.9 C36.1,31.4 28.2,37.1 21.9,41 L29.8,17.3 C31.5027297,16.823579 33.2420164,16.4891008 35,16.3 C38.3,15.9 40.9,15.2 40.6,17.1 Z" id="Shape"></path>
            </g>
        </g>
    </g>
</svg>